# xmcd
#
# Track frame offsets: 
#        150
#        22028
#        37696
#        56458
#        73354
#        87565
#        108035
#        127630
#        146900
#        159847
#        173730
#
# Disc length: 2529 seconds
#
# Revision: 2
# Processed by: cddbd v1.5.2PL0 Copyright (c) Steve Scherf et al.
# Submitted via: ExactAudioCopy v0.99pb5
#
DISCID=8809df0b
DTITLE=Dame Shirley Bassey - The Performance
DYEAR=2009
DGENRE=Blues
TTITLE0=Almost There
TTITLE1=Apartment
TTITLE2=This Time
TTITLE3=I Love You Now
TTITLE4=Our Time Is Now
TTITLE5=As God Is My Witness
TTITLE6=No Good About Goodbye
TTITLE7=The Girl From Tiger Bay
TTITLE8=Nice Men
TTITLE9=After The Rain
TTITLE10=The Performance Of My Life
EXTD=
EXTT0=
EXTT1=
EXTT2=
EXTT3=
EXTT4=
EXTT5=
EXTT6=
EXTT7=
EXTT8=
EXTT9=
EXTT10=
PLAYORDER=
